{"title":"Doctor.Who.2005.S06E10.The.Girl.Who.Waited.HDTV.272p.H264.AAC-k3","uid":6666436,"size":100503676,"categoryP":"video","categoryS":"tv_shows","magnet":"?xt=urn:btih:538b9f3ec021ed4524dbe8cda1f51fed6e350253&amp;dn=Doctor.Who.2005.S06E10.The.Girl.Who.Waited.HDTV.272p.H264.AAC-k3&amp;tr=udp%3A%2F%2Ftracker.openbittorrent.com%3A80&amp;tr=udp%3A%2F%2Fopen.demonii.com%3A1337&amp;tr=udp%3A%2F%2Ftracker.coppersurfer.tk%3A6969&amp;tr=udp%3A%2F%2Fexodus.desync.com%3A6969","seeders":0,"leechers":1,"uploader":"k3nd00d","files":-1,"time":1315703236,"description":"General\nFormat                           : MPEG-4\nFormat profile                   : Base Media / Version 2\nCodec ID                         : mp42\nFile size                        : 95.8 MiB\nDuration                         : 45mn 55s\nOverall bit rate                 : 292 Kbps\n\nVideo\nID                               : 1\nFormat                           : AVC\nFormat/Info                      : Advanced Video Codec\nFormat profile                   : &lt;a class=&quot;__cf_email__&quot; href=&quot;/cdn-cgi/l/email-protection&quot; data-cfemail=&quot;2567445640494c4b406569170b14&quot;&gt;[email&amp;#160;protected]&lt;/a&gt;&lt;script data-cfhash='f9e31' type=&quot;text/javascript&quot;&gt;\n/* &lt;![CDATA[ */!function(){try{var t=&quot;currentScript&quot;in document?document.currentScript:function(){for(var t=document.getElementsByTagName(&quot;script&quot;),e=t.length;e--;)if(t[e].getAttribute(&quot;data-cfhash&quot;))return t[e]}();if(t&amp;&amp;t.previousSibling){var e,r,n,i,c=t.previousSibling,a=c.getAttribute(&quot;data-cfemail&quot;);if(a){for(e=&quot;&quot;,r=parseInt(a.substr(0,2),16),n=2;a.length-n;n+=2)i=parseInt(a.substr(n,2),16)^r,e+=String.fromCharCode(i);e=document.createTextNode(e),c.parentNode.replaceChild(e,c)}t.parentNode.removeChild(t);}}catch(u){}}()/* ]]&gt; */&lt;/script&gt;\nFormat settings, CABAC           : No\nFormat settings, ReFrames        : 2 frames\nFormat settings, GOP             : N=1\nCodec ID                         : avc1\nCodec ID/Info                    : Advanced Video Coding\nDuration                         : 45mn 55s\nBit rate mode                    : Variable\nBit rate                         : 240 Kbps\nWidth                            : 480 pixels\nHeight                           : 272 pixels\nDisplay aspect ratio             : 16:9\nFrame rate mode                  : Constant\nFrame rate                       : 25.000 fps\nColor space                      : YUV\nChroma subsampling               : 4:2:0\nBit depth                        : 8 bits\nScan type                        : Progressive\nBits/(Pixel*Frame)               : 0.074\nStream size                      : 79.4 MiB (83%)\nWriting library                  : x264 core 79\n\nAudio\nID                               : 2\nFormat                           : AAC\nFormat/Info                      : Advanced Audio Codec\nFormat profile                   : LC\nCodec ID                         : 40\nDuration                         : 45mn 55s\nBit rate mode                    : Variable\nBit rate                         : 48.0 Kbps\nMaximum bit rate                 : 69.9 Kbps\nChannel(s)                       : 2 channels\nChannel positions                : Front: L R\nSampling rate                    : 24.0 KHz\nCompression mode                 : Lossy\nStream size                      : 15.8 MiB (16%)\n","torrent":{"xt":"urn:btih:538b9f3ec021ed4524dbe8cda1f51fed6e350253","amp;dn":"Doctor.Who.2005.S06E10.The.Girl.Who.Waited.HDTV.272p.H264.AAC-k3","amp;tr":["udp%3A%2F%2Ftracker.openbittorrent.com%3A80","udp%3A%2F%2Fopen.demonii.com%3A1337","udp%3A%2F%2Ftracker.coppersurfer.tk%3A6969","udp%3A%2F%2Fexodus.desync.com%3A6969"],"infoHash":"538b9f3ec021ed4524dbe8cda1f51fed6e350253","infoHashBuffer":{"type":"Buffer","data":[83,139,159,62,192,33,237,69,36,219,232,205,161,245,31,237,110,53,2,83]},"announce":[],"urlList":[]}}